<?xml version="1.0" encoding="UTF-8"?>
<svg id="Layer_1" data-name="Layer 1" xmlns="http://www.w3.org/2000/svg" viewBox="0 0 500 500">
  <path d="M440.88,500H71.26V.46h240.49l129.13,113.04v386.51ZM94.95,476.3h322.47V124.4l-114.44-100.24H94.95v452.15Z"/>
  <path d="M436.14,133.4h-136.71V12.31h23.69v97.4h113.02v23.7Z"/>
  <path d="M262.94,113.97h-121.78v23.7h121.78v-23.7Z"/>
  <path d="M342.07,195.25h-200.92v23.7h200.92v-23.7Z"/>
  <path d="M256.07,238.38h-114.91v23.7h114.91v-23.7Z"/>
  <path d="M301.8,283.17h-160.64v23.7h160.64v-23.7Z"/>
  <path d="M342.07,326.3h-200.92v23.7h200.92v-23.7Z"/>
  <path d="M198.49,371.32h-57.34v23.7h57.34v-23.7Z"/>
</svg>