<?xml version="1.0" encoding="UTF-8"?>
<svg id="Layer_1" data-name="Layer 1" xmlns="http://www.w3.org/2000/svg" viewBox="0 0 500 500">
  <defs>
    <style>
      .cls-1 {
        fill: #2e2e2e;
      }
    </style>
  </defs>
  <path class="cls-1" d="M0,461.38l34.86-80.33c-15.06-17.01-23.42-39.05-23.42-61.92v-189.38c0-51.32,41.83-93.44,93.42-93.44h301.73c51.31,0,93.42,41.84,93.42,93.44v189.38c0,51.32-41.83,93.44-93.42,93.44H143.34L0,461.66v-.28ZM104.57,64.21c-35.97,0-65.53,29.29-65.53,65.54v189.38c0,18.41,7.81,35.98,21.47,48.53l7.53,6.69-17.57,40.44,90.35-30.12h265.48c35.97,0,65.53-29.29,65.53-65.54v-189.38c0-35.98-29.28-65.54-65.53-65.54H104.57Z"/>
</svg>
