<?xml version="1.0" encoding="UTF-8"?>
<svg id="Layer_1" data-name="Layer 1" xmlns="http://www.w3.org/2000/svg" viewBox="0 0 500 500">
  <defs>
    <style>
      .cls-1 {
        fill: #2e2e2e;
      }
    </style>
  </defs>
  <path class="cls-1" d="M267.15,465.78H-.14l76.24-98.04v-193.73C76.1,78.02,154.11,0,250.08,0s173.98,78.02,173.98,174.01v198.74h-29.44v-198.74c0-79.49-64.76-144.56-144.54-144.56S105.54,94.22,105.54,174.01v203.74l-45.33,58.3h206.95v29.74Z"/>
  <path class="cls-1" d="M500,465.78H232.71v-29.44h206.95l-45.33-58.3v-203.74c0-79.49-64.76-144.56-144.54-144.56S105.24,94.51,105.24,174.3v198.74h-29.44v-198.74C75.8,78.32,153.81.29,249.78.29s173.98,78.02,173.98,174.01v193.73l76.24,98.04v-.29Z"/>
  <path d="M276.57,446.35h-53.28v53.29h53.28v-53.29Z"/>
</svg>
