<?xml version="1.0" encoding="UTF-8"?>
<svg id="Layer_1" data-name="Layer 1" xmlns="http://www.w3.org/2000/svg" viewBox="0 0 500 500">
  <path d="M436.3,499.83c-1.88,0-3.75-.09-5.71-.26-74.69-8.1-147.17-33.94-210.01-74.61-58.24-37.01-108.71-87.48-145.8-145.8C34.02,216.07,8.19,143.17.26,68.47c-.77-8.87.17-17.48,2.98-25.66,2.81-8.27,7.16-15.69,13.05-22.08,5.8-6.39,12.79-11.43,20.8-14.92C45.11,2.31,53.55.52,62.16.52h71.28c14.75,0,29.08,5.29,40.42,15.01,11.43,9.89,18.93,23.53,21.06,38.45,2.9,21.66,8.1,42.8,15.69,63.01,4.18,11.08,5.12,23.19,2.64,34.87-2.47,11.6-8.19,22.25-16.63,30.78l-21.66,21.66c29.84,48.86,70.94,89.95,119.8,119.8l21.57-21.57c8.53-8.44,19.18-14.15,30.87-16.63,11.68-2.47,23.7-1.53,34.87,2.64,20.21,7.59,41.35,12.79,62.76,15.6,15.26,2.13,29.08,9.72,38.88,21.4,9.81,11.6,15.09,26.35,14.75,41.52v70.43c0,8.7-1.71,17.14-5.2,25.15-3.5,8.01-8.53,15.01-14.92,20.89-6.39,5.88-13.81,10.32-22.08,13.13-6.48,2.22-13.13,3.33-19.87,3.33l-.09-.17ZM133.27,30.7H62.16c-4.43,0-8.78.94-12.88,2.73-4.01,1.79-7.76,4.43-10.66,7.67-3.07,3.33-5.29,7.16-6.74,11.34-1.45,4.18-1.96,8.61-1.53,13.05,7.42,69.83,31.55,138.04,69.92,197.22,34.79,54.74,82.02,101.98,136.68,136.68,58.92,38.2,126.87,62.41,196.62,70,4.26.34,8.61-.17,12.88-1.53,4.26-1.45,8.1-3.67,11.34-6.74,3.33-2.98,5.88-6.65,7.67-10.74,1.79-4.09,2.64-8.44,2.64-12.88v-71.03c.17-7.84-2.47-15.43-7.59-21.49-5.03-5.97-12.11-9.89-19.95-11-23.53-3.07-46.9-8.95-69.32-17.31-5.71-2.13-11.94-2.64-17.91-1.36-5.97,1.28-11.43,4.26-15.77,8.53l-29.84,29.84c-4.77,4.77-12.28,5.8-18.16,2.47-61.22-34.79-112.04-85.61-146.91-146.91-3.41-5.88-2.39-13.39,2.47-18.16l29.93-29.93c4.26-4.26,7.16-9.81,8.44-15.77,1.28-5.97.77-12.19-1.36-17.91-8.36-22.42-14.15-45.79-17.31-69.49-1.11-7.5-4.95-14.58-10.83-19.61-5.8-4.95-13.22-7.67-20.8-7.67h.09Z"/>
</svg>
