<?xml version="1.0" encoding="UTF-8"?>
<svg id="Layer_1" data-name="Layer 1" xmlns="http://www.w3.org/2000/svg" viewBox="0 0 500 500">
  <path d="M478.56,499.42h-26.89v-53.93c0-52.04-42.22-94.38-94.11-94.38h-215.12c-51.9,0-94.11,42.33-94.11,94.38v53.93h-26.89v-53.93c0-66.87,54.32-121.34,121-121.34h215.12c66.69,0,121,54.47,121,121.34v53.93Z"/>
  <path d="M250,243.26c-66.69,0-121-54.47-121-121.34S183.31.58,250,.58s121,54.47,121,121.34-54.32,121.34-121,121.34ZM250,27.54c-51.9,0-94.11,42.33-94.11,94.38s42.22,94.38,94.11,94.38,94.11-42.33,94.11-94.38-42.22-94.38-94.11-94.38Z"/>
</svg>
